CSLSans-BoldItalic.ufo
<glyph name="colon" format="2">
  <advance width="320"/>
  <unicode hex="003A"/>
  <outline>
    <contour>
      <point x="109" y="-11" type="qcurve"/>
      <point x="38" y="-11"/>
      <point x="38" y="45" type="qcurve"/>
      <point x="38" y="159"/>
      <point x="135" y="159" type="qcurve"/>
      <point x="206" y="159"/>
      <point x="206" y="103" type="qcurve"/>
      <point x="206" y="-11"/>
    </contour>
    <contour>
      <point x="184" y="364" type="qcurve"/>
      <point x="143" y="364"/>
      <point x="112" y="399"/>
      <point x="112" y="420" type="qcurve"/>
      <point x="112" y="468"/>
      <point x="156" y="534"/>
      <point x="210" y="534" type="qcurve"/>
      <point x="250" y="534"/>
      <point x="281" y="499"/>
      <point x="281" y="478" type="qcurve"/>
      <point x="281" y="364"/>
    </contour>
  </outline>
</glyph>
<glyph name="S" format="2">
  <advance width="615"/>
  <unicode hex="0053"/>
  <outline>
    <contour>
      <point x="270" y="-12" type="qcurve"/>
      <point x="105" y="-12"/>
      <point x="9" y="103" type="qcurve"/>
      <point x="101" y="194" type="line"/>
      <point x="175" y="111"/>
      <point x="279" y="111" type="qcurve"/>
      <point x="397" y="111"/>
      <point x="397" y="202" type="qcurve"/>
      <point x="397" y="256"/>
      <point x="323" y="284" type="qcurve"/>
      <point x="259" y="307" type="line"/>
      <point x="88" y="369"/>
      <point x="88" y="501" type="qcurve"/>
      <point x="88" y="524"/>
      <point x="95" y="549" type="qcurve"/>
      <point x="102" y="579"/>
      <point x="118" y="607" type="qcurve"/>
      <point x="179" y="710"/>
      <point x="346" y="710" type="qcurve"/>
      <point x="502" y="710"/>
      <point x="586" y="609" type="qcurve"/>
      <point x="492" y="518" type="line"/>
      <point x="436" y="587"/>
      <point x="338" y="587" type="qcurve"/>
      <point x="280" y="587"/>
      <point x="228" y="544"/>
      <point x="228" y="513" type="qcurve"/>
      <point x="228" y="455"/>
      <point x="305" y="431" type="qcurve"/>
      <point x="368" y="406" type="line"/>
      <point x="538" y="342"/>
      <point x="538" y="214" type="qcurve"/>
      <point x="538" y="150"/>
      <point x="506" y="98" type="qcurve"/>
      <point x="441" y="-12"/>
    </contour>
  </outline>
</glyph>
<glyph name="bracketleft" format="2">
  <advance width="322"/>
  <unicode hex="005B"/>
  <outline>
    <contour>
      <point x="205" y="-138" type="line"/>
      <point x="-2" y="-138" type="line"/>
      <point x="178" y="760" type="line"/>
      <point x="384" y="760" type="line"/>
      <point x="366" y="669" type="line"/>
      <point x="276" y="669" type="line"/>
      <point x="132" y="-47" type="line"/>
      <point x="223" y="-47" type="line"/>
    </contour>
  </outline>
</glyph>
<glyph name="asciicircum" format="2">
  <advance width="600"/>
  <unicode hex="005E"/>
  <outline>
    <contour>
      <point x="471" y="283" type="line"/>
      <point x="367" y="564" type="line"/>
      <point x="357" y="564" type="line"/>
      <point x="149" y="283" type="line"/>
      <point x="54" y="341" type="line"/>
      <point x="319" y="698" type="line"/>
      <point x="441" y="698" type="line"/>
      <point x="578" y="325" type="line"/>
    </contour>
  </outline>
</glyph>
<glyph name="Ccircumflex" format="2">
  <advance width="629"/>
  <unicode hex="0108"/>
  <outline>
    <contour>
      <point x="303" y="-12" type="qcurve"/>
      <point x="194" y="-12"/>
      <point x="57" y="129"/>
      <point x="57" y="271" type="qcurve"/>
      <point x="57" y="394"/>
      <point x="148" y="593"/>
      <point x="308" y="710"/>
      <point x="410" y="710" type="qcurve"/>
      <point x="593" y="710"/>
      <point x="644" y="542" type="qcurve"/>
      <point x="526" y="492" type="line"/>
      <point x="512" y="542"/>
      <point x="453" y="592"/>
      <point x="400" y="592" type="qcurve"/>
      <point x="321" y="592"/>
      <point x="233" y="489"/>
      <point x="218" y="410" type="qcurve"/>
      <point x="196" y="299" type="line"/>
      <point x="191" y="268"/>
      <point x="191" y="246" type="qcurve"/>
      <point x="191" y="106"/>
      <point x="314" y="106" type="qcurve"/>
      <point x="426" y="106"/>
      <point x="475" y="215" type="qcurve"/>
      <point x="586" y="164" type="line"/>
      <point x="491" y="-12"/>
    </contour>
    <contour>
      <point x="542" y="743" type="line"/>
      <point x="445" y="858" type="line"/>
      <point x="310" y="743" type="line"/>
      <point x="245" y="795" type="line"/>
      <point x="398" y="951" type="line"/>
      <point x="515" y="951" type="line"/>
      <point x="611" y="795" type="line"/>
    </contour>
  </outline>
</glyph>
<glyph name="Cdotaccent" format="2">
  <advance width="629"/>
  <unicode hex="010A"/>
  <outline>
    <contour>
      <point x="303" y="-12" type="qcurve"/>
      <point x="194" y="-12"/>
      <point x="57" y="129"/>
      <point x="57" y="271" type="qcurve"/>
      <point x="57" y="394"/>
      <point x="148" y="593"/>
      <point x="308" y="710"/>
      <point x="410" y="710" type="qcurve"/>
      <point x="593" y="710"/>
      <point x="644" y="542" type="qcurve"/>
      <point x="526" y="492" type="line"/>
      <point x="512" y="542"/>
      <point x="453" y="592"/>
      <point x="400" y="592" type="qcurve"/>
      <point x="321" y="592"/>
      <point x="233" y="489"/>
      <point x="218" y="410" type="qcurve"/>
      <point x="196" y="299" type="line"/>
      <point x="191" y="268"/>
      <point x="191" y="246" type="qcurve"/>
      <point x="191" y="106"/>
      <point x="314" y="106" type="qcurve"/>
      <point x="426" y="106"/>
      <point x="475" y="215" type="qcurve"/>
      <point x="586" y="164" type="line"/>
      <point x="491" y="-12"/>
    </contour>
    <contour>
      <point x="430" y="758" type="qcurve"/>
      <point x="360" y="758"/>
      <point x="360" y="812" type="qcurve"/>
      <point x="360" y="854"/>
      <point x="396" y="914"/>
      <point x="453" y="914" type="qcurve"/>
      <point x="513" y="914"/>
      <point x="521" y="872" type="qcurve"/>
      <point x="523" y="866" type="line"/>
      <point x="522" y="857"/>
      <point x="522" y="844"/>
      <point x="520" y="841" type="qcurve"/>
      <point x="517" y="805"/>
      <point x="481" y="758"/>
    </contour>
  </outline>
</glyph>
<glyph name="Edotaccent" format="2">
  <advance width="576"/>
  <unicode hex="0116"/>
  <outline>
    <contour>
      <point x="478" y="0" type="line"/>
      <point x="25" y="0" type="line"/>
      <point x="165" y="698" type="line"/>
      <point x="607" y="698" type="line"/>
      <point x="583" y="581" type="line"/>
      <point x="275" y="581" type="line"/>
      <point x="241" y="411" type="line"/>
      <point x="514" y="411" type="line"/>
      <point x="491" y="294" type="line"/>
      <point x="217" y="294" type="line"/>
      <point x="182" y="117" type="line"/>
      <point x="502" y="117" type="line"/>
    </contour>
    <contour>
      <point x="400" y="758" type="qcurve"/>
      <point x="330" y="758"/>
      <point x="330" y="812" type="qcurve"/>
      <point x="330" y="854"/>
      <point x="366" y="914"/>
      <point x="423" y="914" type="qcurve"/>
      <point x="483" y="914"/>
      <point x="491" y="872" type="qcurve"/>
      <point x="493" y="866" type="line"/>
      <point x="492" y="857"/>
      <point x="492" y="844"/>
      <point x="490" y="841" type="qcurve"/>
      <point x="487" y="805"/>
      <point x="451" y="758"/>
    </contour>
  </outline>
</glyph>
<glyph name="edotaccent" format="2">
  <advance width="514"/>
  <unicode hex="0117"/>
  <outline>
    <contour>
      <point x="251" y="-12" type="qcurve"/>
      <point x="137" y="-12"/>
      <point x="35" y="112"/>
      <point x="35" y="212" type="qcurve"/>
      <point x="35" y="296"/>
      <point x="112" y="456"/>
      <point x="197" y="507" type="qcurve"/>
      <point x="249" y="535"/>
      <point x="317" y="535" type="qcurve"/>
      <point x="367" y="535"/>
      <point x="450" y="505"/>
      <point x="500" y="441"/>
      <point x="500" y="391" type="qcurve"/>
      <point x="500" y="219"/>
      <point x="164" y="210" type="qcurve"/>
      <point x="162" y="196"/>
      <point x="162" y="184" type="qcurve"/>
      <point x="162" y="93"/>
      <point x="260" y="93" type="qcurve"/>
      <point x="336" y="93"/>
      <point x="394" y="167" type="qcurve"/>
      <point x="473" y="104" type="line"/>
      <point x="388" y="-12"/>
    </contour>
    <contour>
      <point x="178" y="294" type="line"/>
      <point x="285" y="298"/>
      <point x="375" y="338"/>
      <point x="375" y="380" type="qcurve"/>
      <point x="375" y="436"/>
      <point x="309" y="436" type="qcurve"/>
      <point x="205" y="436"/>
      <point x="181" y="309" type="qcurve"/>
    </contour>
    <contour>
      <point x="338" y="596" type="qcurve"/>
      <point x="268" y="596"/>
      <point x="268" y="650" type="qcurve"/>
      <point x="268" y="692"/>
      <point x="304" y="752"/>
      <point x="361" y="752" type="qcurve"/>
      <point x="421" y="752"/>
      <point x="429" y="710" type="qcurve"/>
      <point x="431" y="703" type="line"/>
      <point x="430" y="700"/>
      <point x="430" y="690"/>
      <point x="430" y="686" type="qcurve"/>
      <point x="425" y="638"/>
      <point x="386" y="596"/>
    </contour>
  </outline>
</glyph>
<glyph name="Ncedilla" format="2">
  <advance width="697"/>
  <unicode hex="0145"/>
  <outline>
    <contour>
      <point x="566" y="0" type="line"/>
      <point x="421" y="0" type="line"/>
      <point x="301" y="352" type="line"/>
      <point x="256" y="497" type="line"/>
      <point x="250" y="497" type="line"/>
      <point x="151" y="0" type="line"/>
      <point x="25" y="0" type="line"/>
      <point x="165" y="698" type="line"/>
      <point x="310" y="698" type="line"/>
      <point x="431" y="346" type="line"/>
      <point x="475" y="201" type="line"/>
      <point x="481" y="201" type="line"/>
      <point x="580" y="698" type="line"/>
      <point x="706" y="698" type="line"/>
    </contour>
    <contour>
      <point x="249" y="-269" type="qcurve"/>
      <point x="171" y="-269" type="line"/>
      <point x="221" y="-233"/>
      <point x="246" y="-175" type="qcurve"/>
      <point x="210" y="-170"/>
      <point x="210" y="-125" type="qcurve"/>
      <point x="210" y="-85"/>
      <point x="256" y="-47"/>
      <point x="285" y="-47" type="qcurve"/>
      <point x="338" y="-47"/>
      <point x="342" y="-86" type="qcurve"/>
      <point x="343" y="-91" type="line"/>
      <point x="343" y="-108"/>
      <point x="337" y="-131" type="qcurve"/>
      <point x="313" y="-219"/>
    </contour>
  </outline>
</glyph>
<glyph name="eng" format="2">
  <advance width="582"/>
  <unicode hex="014B"/>
  <outline>
    <contour>
      <point x="291" y="-200" type="qcurve"/>
      <point x="214" y="-200" type="line"/>
      <point x="234" y="-97" type="line"/>
      <point x="312" y="-97" type="line"/>
      <point x="395" y="326" type="line"/>
      <point x="399" y="345"/>
      <point x="399" y="365" type="qcurve"/>
      <point x="399" y="427"/>
      <point x="342" y="427" type="qcurve"/>
      <point x="305" y="427"/>
      <point x="249" y="383"/>
      <point x="211" y="318"/>
      <point x="203" y="284" type="qcurve"/>
      <point x="146" y="0" type="line"/>
      <point x="18" y="0" type="line"/>
      <point x="123" y="523" type="line"/>
      <point x="251" y="523" type="line"/>
      <point x="228" y="405" type="line"/>
      <point x="233" y="405" type="line"/>
      <point x="294" y="535"/>
      <point x="404" y="535" type="qcurve"/>
      <point x="532" y="535"/>
      <point x="532" y="396" type="qcurve"/>
      <point x="532" y="364"/>
      <point x="523" y="325" type="qcurve"/>
      <point x="444" y="-68" type="line"/>
      <point x="421" y="-200"/>
    </contour>
  </outline>
</glyph>
<glyph name="Rcaron" format="2">
  <advance width="649"/>
  <unicode hex="0158"/>
  <outline>
    <contour>
      <point x="551" y="0" type="line"/>
      <point x="409" y="0" type="line"/>
      <point x="335" y="267" type="line"/>
      <point x="212" y="267" type="line"/>
      <point x="158" y="0" type="line"/>
      <point x="25" y="0" type="line"/>
      <point x="165" y="698" type="line"/>
      <point x="433" y="698" type="line"/>
      <point x="541" y="698"/>
      <point x="637" y="597"/>
      <point x="637" y="520" type="qcurve"/>
      <point x="637" y="443"/>
      <point x="549" y="312"/>
      <point x="463" y="283" type="qcurve"/>
    </contour>
    <contour>
      <point x="390" y="380" type="line"/>
      <point x="430" y="380"/>
      <point x="478" y="429"/>
      <point x="499" y="495"/>
      <point x="499" y="522" type="qcurve"/>
      <point x="499" y="547"/>
      <point x="467" y="581"/>
      <point x="429" y="581" type="qcurve"/>
      <point x="274" y="581" type="line"/>
      <point x="235" y="380" type="line"/>
    </contour>
    <contour>
      <point x="457" y="752" type="line"/>
      <point x="340" y="752" type="line"/>
      <point x="242" y="907" type="line"/>
      <point x="310" y="960" type="line"/>
      <point x="405" y="844" type="line"/>
      <point x="543" y="960" type="line"/>
      <point x="609" y="907" type="line"/>
    </contour>
  </outline>
</glyph>
<glyph name="Uogonek" format="2">
  <advance width="674"/>
  <unicode hex="0172"/>
  <outline>
    <contour>
      <point x="295" y="-211" type="qcurve"/>
      <point x="251" y="-211"/>
      <point x="181" y="-173"/>
      <point x="181" y="-130" type="qcurve"/>
      <point x="181" y="-96"/>
      <point x="234" y="-36"/>
      <point x="293" y="-16" type="qcurve"/>
      <point x="292" y="-12" type="line"/>
      <point x="74" y="-3"/>
      <point x="74" y="209" type="qcurve"/>
      <point x="74" y="251"/>
      <point x="83" y="301" type="qcurve"/>
      <point x="163" y="698" type="line"/>
      <point x="294" y="698" type="line"/>
      <point x="211" y="280" type="line"/>
      <point x="203" y="243"/>
      <point x="203" y="216" type="qcurve"/>
      <point x="204" y="109"/>
      <point x="310" y="109" type="qcurve"/>
      <point x="442" y="109"/>
      <point x="467" y="273" type="qcurve"/>
      <point x="484" y="366"/>
      <point x="507" y="478"/>
      <point x="532" y="598"/>
      <point x="552" y="698" type="qcurve"/>
      <point x="684" y="698" type="line"/>
      <point x="599" y="276" type="line"/>
      <point x="570" y="137"/>
      <point x="472" y="21"/>
      <point x="394" y="-7" type="qcurve"/>
      <point x="277" y="-65"/>
      <point x="277" y="-113" type="qcurve"/>
      <point x="277" y="-142"/>
      <point x="311" y="-142" type="qcurve"/>
      <point x="347" y="-142"/>
      <point x="365" y="-115" type="qcurve"/>
      <point x="415" y="-164" type="line"/>
      <point x="381" y="-211"/>
    </contour>
  </outline>
</glyph>
<glyph name="AEacute" format="2">
  <advance width="913"/>
  <unicode hex="01FC"/>
  <outline>
    <contour>
      <point x="816" y="0" type="line"/>
      <point x="363" y="0" type="line"/>
      <point x="399" y="176" type="line"/>
      <point x="199" y="176" type="line"/>
      <point x="90" y="0" type="line"/>
      <point x="-53" y="0" type="line"/>
      <point x="398" y="698" type="line"/>
      <point x="945" y="698" type="line"/>
      <point x="921" y="581" type="line"/>
      <point x="613" y="581" type="line"/>
      <point x="579" y="411" type="line"/>
      <point x="852" y="411" type="line"/>
      <point x="829" y="294" type="line"/>
      <point x="555" y="294" type="line"/>
      <point x="520" y="117" type="line"/>
      <point x="840" y="117" type="line"/>
    </contour>
    <contour>
      <point x="421" y="288" type="line"/>
      <point x="480" y="582" type="line"/>
      <point x="454" y="582" type="line"/>
      <point x="271" y="288" type="line"/>
    </contour>
    <contour>
      <point x="592" y="742" type="line"/>
      <point x="514" y="784" type="line"/>
      <point x="630" y="971" type="line"/>
      <point x="734" y="915" type="line"/>
    </contour>
  </outline>
</glyph>
<glyph name="circumflexmod" format="2">
  <advance width="587"/>
  <unicode hex="02C6"/>
  <outline>
    <contour>
      <point x="420" y="581" type="line"/>
      <point x="322" y="696" type="line"/>
      <point x="187" y="581" type="line"/>
      <point x="123" y="634" type="line"/>
      <point x="276" y="789" type="line"/>
      <point x="392" y="789" type="line"/>
      <point x="489" y="633" type="line"/>
    </contour>
  </outline>
</glyph>
<glyph name="caronmod" format="2">
  <advance width="586"/>
  <unicode hex="02C7"/>
  <outline>
    <contour>
      <point x="362" y="590" type="line"/>
      <point x="244" y="590" type="line"/>
      <point x="147" y="745" type="line"/>
      <point x="215" y="797" type="line"/>
      <point x="310" y="682" type="line"/>
      <point x="448" y="797" type="line"/>
      <point x="514" y="745" type="line"/>
    </contour>
  </outline>
</glyph>
<glyph name="brevemod" format="2">
  <advance width="587"/>
  <unicode hex="02D8"/>
  <outline>
    <contour>
      <point x="305" y="582" type="qcurve"/>
      <point x="255" y="582"/>
      <point x="187" y="629"/>
      <point x="148" y="704"/>
      <point x="143" y="746" type="qcurve"/>
      <point x="216" y="783" type="line"/>
      <point x="233" y="748" type="line"/>
      <point x="247" y="711"/>
      <point x="283" y="676"/>
      <point x="312" y="676" type="qcurve"/>
      <point x="343" y="676"/>
      <point x="383" y="714"/>
      <point x="411" y="751" type="qcurve"/>
      <point x="436" y="783" type="line"/>
      <point x="513" y="742" type="line"/>
      <point x="430" y="582"/>
    </contour>
  </outline>
</glyph>
<glyph name="acutecomb" format="2">
  <advance width="0"/>
  <unicode hex="0301"/>
  <outline>
    <contour>
      <point x="29" y="580" type="line"/>
      <point x="-48" y="622" type="line"/>
      <point x="68" y="808" type="line"/>
      <point x="171" y="753" type="line"/>
    </contour>
  </outline>
</glyph>
<glyph name="Etatonos-grek" format="2">
  <advance width="773"/>
  <unicode hex="0389"/>
  <outline>
    <contour>
      <point x="571" y="296" type="line"/>
      <point x="292" y="296" type="line"/>
      <point x="232" y="0" type="line"/>
      <point x="103" y="0" type="line"/>
      <point x="243" y="698" type="line"/>
      <point x="372" y="698" type="line"/>
      <point x="315" y="410" type="line"/>
      <point x="595" y="410" type="line"/>
      <point x="652" y="698" type="line"/>
      <point x="781" y="698" type="line"/>
      <point x="641" y="0" type="line"/>
      <point x="512" y="0" type="line"/>
    </contour>
    <contour>
      <point x="131" y="580" type="line"/>
      <point x="51" y="605" type="line"/>
      <point x="121" y="806" type="line"/>
      <point x="234" y="778" type="line"/>
    </contour>
  </outline>
</glyph>
<glyph name="Iotatonos-grek" format="2">
  <advance width="489"/>
  <unicode hex="038A"/>
  <outline>
    <contour>
      <point x="298" y="0" type="line"/>
      <point x="165" y="0" type="line"/>
      <point x="306" y="698" type="line"/>
      <point x="439" y="698" type="line"/>
    </contour>
    <contour>
      <point x="167" y="580" type="line"/>
      <point x="87" y="605" type="line"/>
      <point x="157" y="806" type="line"/>
      <point x="270" y="778" type="line"/>
    </contour>
  </outline>
</glyph>
<glyph name="Zeta-grek" format="2">
  <advance width="571"/>
  <unicode hex="0396"/>
  <outline>
    <contour>
      <point x="482" y="0" type="line"/>
      <point x="-12" y="0" type="line"/>
      <point x="11" y="115" type="line"/>
      <point x="442" y="584" type="line"/>
      <point x="119" y="584" type="line"/>
      <point x="142" y="698" type="line"/>
      <point x="618" y="698" type="line"/>
      <point x="594" y="582" type="line"/>
      <point x="164" y="114" type="line"/>
      <point x="506" y="114" type="line"/>
    </contour>
  </outline>
</glyph>
<glyph name="Eta-grek" format="2">
  <advance width="697"/>
  <unicode hex="0397"/>
  <outline>
    <contour>
      <point x="493" y="296" type="line"/>
      <point x="214" y="296" type="line"/>
      <point x="154" y="0" type="line"/>
      <point x="25" y="0" type="line"/>
      <point x="165" y="698" type="line"/>
      <point x="294" y="698" type="line"/>
      <point x="237" y="410" type="line"/>
      <point x="517" y="410" type="line"/>
      <point x="574" y="698" type="line"/>
      <point x="703" y="698" type="line"/>
      <point x="563" y="0" type="line"/>
      <point x="434" y="0" type="line"/>
    </contour>
  </outline>
</glyph>
<glyph name="Nu-grek" format="2">
  <advance width="697"/>
  <unicode hex="039D"/>
  <outline>
    <contour>
      <point x="299" y="357" type="line"/>
      <point x="254" y="503" type="line"/>
      <point x="248" y="503" type="line"/>
      <point x="148" y="0" type="line"/>
      <point x="25" y="0" type="line"/>
      <point x="165" y="698" type="line"/>
      <point x="306" y="698" type="line"/>
      <point x="429" y="341" type="line"/>
      <point x="474" y="195" type="line"/>
      <point x="480" y="195" type="line"/>
      <point x="581" y="698" type="line"/>
      <point x="703" y="698" type="line"/>
      <point x="563" y="0" type="line"/>
      <point x="422" y="0" type="line"/>
    </contour>
  </outline>
</glyph>
<glyph name="Xi-grek" format="2">
  <advance width="587"/>
  <unicode hex="039E"/>
  <outline>
    <contour>
      <point x="144" y="698" type="line"/>
      <point x="618" y="698" type="line"/>
      <point x="595" y="584" type="line"/>
      <point x="120" y="584" type="line"/>
    </contour>
    <contour>
      <point x="144" y="410" type="line"/>
      <point x="502" y="410" type="line"/>
      <point x="479" y="296" type="line"/>
      <point x="121" y="296" type="line"/>
    </contour>
    <contour>
      <point x="27" y="114" type="line"/>
      <point x="501" y="114" type="line"/>
      <point x="478" y="0" type="line"/>
      <point x="3" y="0" type="line"/>
    </contour>
  </outline>
</glyph>
<glyph name="Phi-grek" format="2">
  <advance width="814"/>
  <unicode hex="03A6"/>
  <outline>
    <contour>
      <point x="294" y="32" type="line"/>
      <point x="241" y="32"/>
      <point x="151" y="63"/>
      <point x="85" y="124"/>
      <point x="48" y="216"/>
      <point x="48" y="277" type="qcurve"/>
      <point x="48" y="362"/>
      <point x="96" y="509"/>
      <point x="190" y="615"/>
      <point x="331" y="676"/>
      <point x="424" y="676" type="qcurve"/>
      <point x="436" y="736" type="line"/>
      <point x="565" y="736" type="line"/>
      <point x="553" y="676" type="line"/>
      <point x="607" y="676"/>
      <point x="697" y="644"/>
      <point x="762" y="583"/>
      <point x="799" y="491"/>
      <point x="799" y="431" type="qcurve"/>
      <point x="799" y="345"/>
      <point x="751" y="199"/>
      <point x="656" y="92"/>
      <point x="515" y="32"/>
      <point x="423" y="32" type="qcurve"/>
      <point x="409" y="-40" type="line"/>
      <point x="280" y="-40" type="line"/>
    </contour>
    <contour>
      <point x="405" y="570" type="line"/>
      <point x="321" y="570"/>
      <point x="213" y="478"/>
      <point x="193" y="381" type="qcurve"/>
      <point x="184" y="334" type="line"/>
      <point x="178" y="304"/>
      <point x="178" y="275" type="qcurve"/>
      <point x="178" y="203"/>
      <point x="245" y="138"/>
      <point x="318" y="138" type="qcurve"/>
    </contour>
    <contour>
      <point x="445" y="138" type="line"/>
      <point x="528" y="138"/>
      <point x="633" y="229"/>
      <point x="654" y="327" type="qcurve"/>
      <point x="663" y="373" type="line"/>
      <point x="669" y="401"/>
      <point x="669" y="433" type="qcurve"/>
      <point x="669" y="505"/>
      <point x="600" y="570"/>
      <point x="528" y="570" type="qcurve"/>
      <point x="442" y="138" type="line"/>
    </contour>
  </outline>
</glyph>
<glyph name="Nje-cyrl" format="2">
  <advance width="1014"/>
  <unicode hex="040A"/>
  <outline>
    <contour>
      <point x="714" y="0" type="qcurve"/>
      <point x="413" y="0" type="line"/>
      <point x="472" y="294" type="line"/>
      <point x="217" y="294" type="line"/>
      <point x="158" y="0" type="line"/>
      <point x="25" y="0" type="line"/>
      <point x="165" y="698" type="line"/>
      <point x="298" y="698" type="line"/>
      <point x="241" y="411" type="line"/>
      <point x="496" y="411" type="line"/>
      <point x="554" y="698" type="line"/>
      <point x="687" y="698" type="line"/>
      <point x="635" y="438" type="line"/>
      <point x="770" y="438" type="line"/>
      <point x="880" y="438"/>
      <point x="978" y="337"/>
      <point x="978" y="255" type="qcurve"/>
      <point x="978" y="174"/>
      <point x="907" y="60"/>
      <point x="787" y="0"/>
    </contour>
    <contour>
      <point x="731" y="117" type="line"/>
      <point x="776" y="117"/>
      <point x="823" y="173"/>
      <point x="841" y="242"/>
      <point x="841" y="265" type="qcurve"/>
      <point x="841" y="321"/>
      <point x="773" y="321" type="qcurve"/>
      <point x="610" y="321" type="line"/>
      <point x="570" y="117" type="line"/>
    </contour>
  </outline>
</glyph>
<glyph name="Kje-cyrl" format="2">
  <advance width="655"/>
  <unicode hex="040C"/>
  <outline>
    <contour>
      <point x="556" y="0" type="line"/>
      <point x="505" y="0" type="line"/>
      <point x="460" y="0"/>
      <point x="410" y="37"/>
      <point x="397" y="81" type="qcurve"/>
      <point x="321" y="294" type="line"/>
      <point x="217" y="294" type="line"/>
      <point x="158" y="0" type="line"/>
      <point x="25" y="0" type="line"/>
      <point x="165" y="698" type="line"/>
      <point x="298" y="698" type="line"/>
      <point x="240" y="411" type="line"/>
      <point x="344" y="411" type="line"/>
      <point x="500" y="629" type="line"/>
      <point x="525" y="666"/>
      <point x="581" y="698"/>
      <point x="623" y="698" type="qcurve"/>
      <point x="684" y="698" type="line"/>
      <point x="661" y="580" type="line"/>
      <point x="607" y="580" type="line"/>
      <point x="493" y="422" type="line"/>
      <point x="461" y="376"/>
      <point x="427" y="368" type="qcurve"/>
      <point x="404" y="362"/>
      <point x="404" y="356" type="qcurve"/>
      <point x="442" y="342"/>
      <point x="459" y="292" type="qcurve"/>
      <point x="521" y="118" type="line"/>
      <point x="579" y="118" type="line"/>
    </contour>
    <contour>
      <point x="444" y="742" type="line"/>
      <point x="367" y="784" type="line"/>
      <point x="483" y="971" type="line"/>
      <point x="587" y="915" type="line"/>
    </contour>
  </outline>
</glyph>
<glyph name="I-cyrl" format="2">
  <advance width="697"/>
  <unicode hex="0418"/>
  <outline>
    <contour>
      <point x="566" y="0" type="line"/>
      <point x="437" y="0" type="line"/>
      <point x="510" y="363" type="line"/>
      <point x="553" y="506" type="line"/>
      <point x="550" y="506" type="line"/>
      <point x="458" y="374" type="line"/>
      <point x="145" y="0" type="line"/>
      <point x="25" y="0" type="line"/>
      <point x="165" y="698" type="line"/>
      <point x="294" y="698" type="line"/>
      <point x="222" y="335" type="line"/>
      <point x="179" y="192" type="line"/>
      <point x="182" y="192" type="line"/>
      <point x="274" y="324" type="line"/>
      <point x="586" y="698" type="line"/>
      <point x="706" y="698" type="line"/>
    </contour>
  </outline>
</glyph>
<glyph name="El-cyrl" format="2">
  <advance width="711"/>
  <unicode hex="041B"/>
  <outline>
    <contour>
      <point x="17" y="-5" type="qcurve"/>
      <point x="-32" y="-5" type="line"/>
      <point x="-7" y="118" type="line"/>
      <point x="72" y="118" type="line"/>
      <point x="160" y="184"/>
      <point x="229" y="564" type="qcurve"/>
      <point x="256" y="698" type="line"/>
      <point x="720" y="698" type="line"/>
      <point x="580" y="0" type="line"/>
      <point x="447" y="0" type="line"/>
      <point x="564" y="580" type="line"/>
      <point x="361" y="580" type="line"/>
      <point x="320" y="370"/>
      <point x="300" y="302" type="qcurve"/>
      <point x="246" y="115"/>
      <point x="171" y="49" type="qcurve"/>
      <point x="110" y="-5"/>
    </contour>
  </outline>
</glyph>
<glyph name="Em-cyrl" format="2">
  <advance width="798"/>
  <unicode hex="041C"/>
  <outline>
    <contour>
      <point x="667" y="0" type="line"/>
      <point x="540" y="0" type="line"/>
      <point x="638" y="485" type="line"/>
      <point x="632" y="485" type="line"/>
      <point x="526" y="334"/>
      <point x="489" y="285" type="qcurve"/>
      <point x="372" y="125" type="line"/>
      <point x="255" y="486" type="line"/>
      <point x="250" y="486" type="line"/>
      <point x="152" y="0" type="line"/>
      <point x="25" y="0" type="line"/>
      <point x="165" y="698" type="line"/>
      <point x="308" y="698" type="line"/>
      <point x="413" y="357" type="line"/>
      <point x="416" y="357" type="line"/>
      <point x="655" y="698" type="line"/>
      <point x="807" y="698" type="line"/>
    </contour>
  </outline>
</glyph>
<glyph name="Yeru-cyrl" format="2">
  <advance width="902"/>
  <unicode hex="042B"/>
  <outline>
    <contour>
      <point x="326" y="0" type="qcurve"/>
      <point x="25" y="0" type="line"/>
      <point x="166" y="698" type="line"/>
      <point x="299" y="698" type="line"/>
      <point x="247" y="438" type="line"/>
      <point x="382" y="438" type="line"/>
      <point x="492" y="438"/>
      <point x="591" y="336"/>
      <point x="591" y="255" type="qcurve"/>
      <point x="591" y="171"/>
      <point x="516" y="58"/>
      <point x="395" y="0"/>
    </contour>
    <contour>
      <point x="343" y="117" type="line"/>
      <point x="388" y="117"/>
      <point x="436" y="175"/>
      <point x="453" y="244"/>
      <point x="453" y="265" type="qcurve"/>
      <point x="453" y="321"/>
      <point x="386" y="321" type="qcurve"/>
      <point x="222" y="321" type="line"/>
      <point x="182" y="117" type="line"/>
    </contour>
    <contour>
      <point x="771" y="0" type="line"/>
      <point x="639" y="0" type="line"/>
      <point x="779" y="698" type="line"/>
      <point x="911" y="698" type="line"/>
    </contour>
  </outline>
</glyph>
<glyph name="Zedescender-cyrl" format="2">
  <advance width="600"/>
  <unicode hex="0498"/>
  <outline>
    <contour>
      <point x="266" y="-150" type="line"/>
      <point x="142" y="-150" type="line"/>
      <point x="170" y="-5" type="line"/>
      <point x="62" y="18"/>
      <point x="0" y="112" type="qcurve"/>
      <point x="102" y="191" type="line"/>
      <point x="153" y="106"/>
      <point x="249" y="106" type="qcurve"/>
      <point x="392" y="106"/>
      <point x="392" y="229" type="qcurve"/>
      <point x="392" y="295"/>
      <point x="298" y="295" type="qcurve"/>
      <point x="195" y="295" type="line"/>
      <point x="219" y="413" type="line"/>
      <point x="313" y="413" type="line"/>
      <point x="443" y="413"/>
      <point x="443" y="521" type="qcurve"/>
      <point x="443" y="592"/>
      <point x="344" y="592" type="qcurve"/>
      <point x="244" y="592"/>
      <point x="181" y="523" type="qcurve"/>
      <point x="102" y="613" type="line"/>
      <point x="205" y="710"/>
      <point x="359" y="710" type="qcurve"/>
      <point x="477" y="710"/>
      <point x="582" y="617"/>
      <point x="582" y="545" type="qcurve"/>
      <point x="582" y="400"/>
      <point x="430" y="361" type="qcurve"/>
      <point x="430" y="359"/>
      <point x="429" y="358" type="qcurve"/>
      <point x="429" y="356" type="line"/>
      <point x="530" y="331"/>
      <point x="530" y="226" type="qcurve"/>
      <point x="530" y="132"/>
      <point x="404" y="6"/>
      <point x="295" y="-10" type="qcurve"/>
    </contour>
  </outline>
</glyph>
<glyph name="Abreve-cyrl" format="2">
  <advance width="651"/>
  <unicode hex="04D0"/>
  <outline>
    <contour>
      <point x="580" y="0" type="line"/>
      <point x="446" y="0" type="line"/>
      <point x="428" y="176" type="line"/>
      <point x="196" y="176" type="line"/>
      <point x="109" y="0" type="line"/>
      <point x="-33" y="0" type="line"/>
      <point x="328" y="698" type="line"/>
      <point x="498" y="698" type="line"/>
    </contour>
    <contour>
      <point x="418" y="288" type="line"/>
      <point x="393" y="577" type="line"/>
      <point x="385" y="577" type="line"/>
      <point x="249" y="288" type="line"/>
    </contour>
    <contour>
      <point x="420" y="745" type="qcurve"/>
      <point x="312" y="745"/>
      <point x="279" y="850" type="qcurve"/>
      <point x="263" y="900" type="line"/>
      <point x="368" y="940" type="line"/>
      <point x="385" y="842" type="line"/>
      <point x="405" y="835"/>
      <point x="431" y="835" type="qcurve"/>
      <point x="461" y="835"/>
      <point x="475" y="842" type="qcurve"/>
      <point x="522" y="940" type="line"/>
      <point x="623" y="898" type="line"/>
      <point x="594" y="850" type="line"/>
      <point x="536" y="745"/>
    </contour>
  </outline>
</glyph>
<glyph name="Idieresis-cyrl" format="2">
  <advance width="697"/>
  <unicode hex="04E4"/>
  <outline>
    <contour>
      <point x="566" y="0" type="line"/>
      <point x="437" y="0" type="line"/>
      <point x="504" y="336" type="line"/>
      <point x="524" y="410" type="line"/>
      <point x="532" y="434"/>
      <point x="545" y="482"/>
      <point x="553" y="506" type="qcurve"/>
      <point x="550" y="506" type="line"/>
      <point x="458" y="374" type="line"/>
      <point x="145" y="0" type="line"/>
      <point x="25" y="0" type="line"/>
      <point x="165" y="698" type="line"/>
      <point x="294" y="698" type="line"/>
      <point x="280" y="627" type="line"/>
      <point x="243" y="436"/>
      <point x="207" y="287" type="qcurve"/>
      <point x="179" y="192" type="line"/>
      <point x="182" y="192" type="line"/>
      <point x="274" y="324" type="line"/>
      <point x="586" y="698" type="line"/>
      <point x="706" y="698" type="line"/>
    </contour>
    <contour>
      <point x="352" y="765" type="qcurve"/>
      <point x="292" y="765"/>
      <point x="292" y="811" type="qcurve"/>
      <point x="292" y="908"/>
      <point x="377" y="908" type="qcurve"/>
      <point x="437" y="908"/>
      <point x="437" y="862" type="qcurve"/>
      <point x="437" y="765"/>
    </contour>
    <contour>
      <point x="548" y="765" type="qcurve"/>
      <point x="488" y="765"/>
      <point x="488" y="811" type="qcurve"/>
      <point x="488" y="908"/>
      <point x="574" y="908" type="qcurve"/>
      <point x="633" y="908"/>
      <point x="633" y="862" type="qcurve"/>
      <point x="633" y="765"/>
    </contour>
  </outline>
</glyph>
<glyph name="ahookabove" format="2">
  <advance width="589"/>
  <unicode hex="1EA3"/>
  <outline>
    <contour>
      <point x="178" y="-12" type="qcurve"/>
      <point x="128" y="-12"/>
      <point x="65" y="38"/>
      <point x="35" y="122"/>
      <point x="35" y="173" type="qcurve"/>
      <point x="35" y="266"/>
      <point x="94" y="431"/>
      <point x="204" y="535"/>
      <point x="280" y="535" type="qcurve"/>
      <point x="334" y="535"/>
      <point x="405" y="479"/>
      <point x="412" y="434" type="qcurve"/>
      <point x="417" y="434" type="line"/>
      <point x="435" y="523" type="line"/>
      <point x="563" y="523" type="line"/>
      <point x="478" y="104" type="line"/>
      <point x="540" y="104" type="line"/>
      <point x="520" y="0" type="line"/>
      <point x="431" y="0" type="line"/>
      <point x="348" y="4"/>
      <point x="348" y="76" type="qcurve"/>
      <point x="348" y="83"/>
      <point x="354" y="120" type="qcurve"/>
      <point x="348" y="120" type="line"/>
      <point x="319" y="56"/>
      <point x="239" y="-12"/>
    </contour>
    <contour>
      <point x="237" y="94" type="qcurve"/>
      <point x="289" y="94"/>
      <point x="365" y="185"/>
      <point x="380" y="251" type="qcurve"/>
      <point x="399" y="346"/>
      <point x="399" y="356" type="qcurve"/>
      <point x="399" y="391"/>
      <point x="347" y="429"/>
      <point x="310" y="429" type="qcurve"/>
      <point x="210" y="429"/>
      <point x="186" y="304" type="qcurve"/>
      <point x="180" y="269"/>
      <point x="175" y="245" type="qcurve"/>
      <point x="166" y="206"/>
      <point x="166" y="177" type="qcurve"/>
      <point x="167" y="94"/>
    </contour>
    <contour>
      <point x="381" y="572" type="line"/>
      <point x="318" y="604" type="line"/>
      <point x="371" y="700" type="line"/>
      <point x="254" y="700" type="line"/>
      <point x="272" y="795" type="line"/>
      <point x="410" y="795" type="line"/>
      <point x="451" y="795"/>
      <point x="485" y="762"/>
      <point x="485" y="740" type="qcurve"/>
      <point x="485" y="682"/>
      <point x="423" y="620" type="qcurve"/>
    </contour>
  </outline>
</glyph>
<glyph name="acircumflexgrave" format="2">
  <advance width="589"/>
  <unicode hex="1EA7"/>
  <outline>
    <contour>
      <point x="178" y="-12" type="qcurve"/>
      <point x="128" y="-12"/>
      <point x="65" y="38"/>
      <point x="35" y="122"/>
      <point x="35" y="173" type="qcurve"/>
      <point x="35" y="266"/>
      <point x="94" y="431"/>
      <point x="204" y="535"/>
      <point x="280" y="535" type="qcurve"/>
      <point x="334" y="535"/>
      <point x="405" y="479"/>
      <point x="412" y="434" type="qcurve"/>
      <point x="417" y="434" type="line"/>
      <point x="435" y="523" type="line"/>
      <point x="563" y="523" type="line"/>
      <point x="478" y="104" type="line"/>
      <point x="540" y="104" type="line"/>
      <point x="520" y="0" type="line"/>
      <point x="431" y="0" type="line"/>
      <point x="348" y="4"/>
      <point x="348" y="76" type="qcurve"/>
      <point x="348" y="83"/>
      <point x="354" y="120" type="qcurve"/>
      <point x="348" y="120" type="line"/>
      <point x="319" y="56"/>
      <point x="239" y="-12"/>
    </contour>
    <contour>
      <point x="237" y="94" type="qcurve"/>
      <point x="289" y="94"/>
      <point x="365" y="185"/>
      <point x="380" y="251" type="qcurve"/>
      <point x="399" y="346"/>
      <point x="399" y="356" type="qcurve"/>
      <point x="399" y="391"/>
      <point x="347" y="429"/>
      <point x="310" y="429" type="qcurve"/>
      <point x="210" y="429"/>
      <point x="186" y="304" type="qcurve"/>
      <point x="180" y="269"/>
      <point x="175" y="245" type="qcurve"/>
      <point x="166" y="206"/>
      <point x="166" y="177" type="qcurve"/>
      <point x="167" y="94"/>
    </contour>
    <contour>
      <point x="209" y="728" type="line"/>
      <point x="102" y="901" type="line"/>
      <point x="206" y="951" type="line"/>
      <point x="277" y="763" type="line"/>
    </contour>
    <contour>
      <point x="466" y="571" type="line"/>
      <point x="369" y="678" type="line"/>
      <point x="229" y="571" type="line"/>
      <point x="170" y="628" type="line"/>
      <point x="333" y="773" type="line"/>
      <point x="424" y="773" type="line"/>
      <point x="532" y="628" type="line"/>
    </contour>
  </outline>
</glyph>
<glyph name="Acircumflexdotbelow" format="2">
  <advance width="651"/>
  <unicode hex="1EAC"/>
  <outline>
    <contour>
      <point x="580" y="0" type="line"/>
      <point x="446" y="0" type="line"/>
      <point x="428" y="176" type="line"/>
      <point x="196" y="176" type="line"/>
      <point x="109" y="0" type="line"/>
      <point x="-33" y="0" type="line"/>
      <point x="328" y="698" type="line"/>
      <point x="498" y="698" type="line"/>
    </contour>
    <contour>
      <point x="418" y="288" type="line"/>
      <point x="393" y="577" type="line"/>
      <point x="385" y="577" type="line"/>
      <point x="249" y="288" type="line"/>
    </contour>
    <contour>
      <point x="536" y="743" type="line"/>
      <point x="439" y="858" type="line"/>
      <point x="304" y="743" type="line"/>
      <point x="239" y="795" type="line"/>
      <point x="392" y="951" type="line"/>
      <point x="509" y="951" type="line"/>
      <point x="605" y="795" type="line"/>
    </contour>
    <contour>
      <point x="245" y="-196" type="qcurve"/>
      <point x="180" y="-196"/>
      <point x="180" y="-147" type="qcurve"/>
      <point x="180" y="-142"/>
      <point x="181" y="-134"/>
      <point x="184" y="-122"/>
      <point x="186" y="-112" type="qcurve"/>
      <point x="192" y="-56"/>
      <point x="264" y="-56" type="qcurve"/>
      <point x="328" y="-56"/>
      <point x="328" y="-105" type="qcurve"/>
      <point x="328" y="-115"/>
      <point x="324" y="-130"/>
      <point x="323" y="-140" type="qcurve"/>
      <point x="315" y="-168"/>
      <point x="279" y="-196"/>
    </contour>
  </outline>
</glyph>
<glyph name="Abrevedotbelow" format="2">
  <advance width="651"/>
  <unicode hex="1EB6"/>
  <outline>
    <contour>
      <point x="580" y="0" type="line"/>
      <point x="446" y="0" type="line"/>
      <point x="428" y="176" type="line"/>
      <point x="196" y="176" type="line"/>
      <point x="109" y="0" type="line"/>
      <point x="-33" y="0" type="line"/>
      <point x="328" y="698" type="line"/>
      <point x="498" y="698" type="line"/>
    </contour>
    <contour>
      <point x="418" y="288" type="line"/>
      <point x="393" y="577" type="line"/>
      <point x="385" y="577" type="line"/>
      <point x="249" y="288" type="line"/>
    </contour>
    <contour>
      <point x="422" y="744" type="qcurve"/>
      <point x="352" y="744"/>
      <point x="268" y="837"/>
      <point x="259" y="908" type="qcurve"/>
      <point x="332" y="945" type="line"/>
      <point x="344" y="920" type="line"/>
      <point x="351" y="902"/>
      <point x="367" y="875"/>
      <point x="396" y="838"/>
      <point x="424" y="838" type="qcurve"/>
      <point x="459" y="839"/>
      <point x="506" y="881"/>
      <point x="537" y="924" type="qcurve"/>
      <point x="553" y="945" type="line"/>
      <point x="629" y="904" type="line"/>
      <point x="550" y="744"/>
    </contour>
    <contour>
      <point x="245" y="-196" type="qcurve"/>
      <point x="180" y="-196"/>
      <point x="180" y="-147" type="qcurve"/>
      <point x="180" y="-142"/>
      <point x="181" y="-134"/>
      <point x="184" y="-122"/>
      <point x="186" y="-112" type="qcurve"/>
      <point x="192" y="-56"/>
      <point x="264" y="-56" type="qcurve"/>
      <point x="328" y="-56"/>
      <point x="328" y="-105" type="qcurve"/>
      <point x="328" y="-115"/>
      <point x="324" y="-130"/>
      <point x="323" y="-140" type="qcurve"/>
      <point x="315" y="-168"/>
      <point x="279" y="-196"/>
    </contour>
  </outline>
</glyph>
<glyph name="edotbelow" format="2">
  <advance width="514"/>
  <unicode hex="1EB9"/>
  <outline>
    <contour>
      <point x="251" y="-12" type="qcurve"/>
      <point x="137" y="-12"/>
      <point x="35" y="112"/>
      <point x="35" y="212" type="qcurve"/>
      <point x="35" y="296"/>
      <point x="112" y="456"/>
      <point x="197" y="507" type="qcurve"/>
      <point x="249" y="535"/>
      <point x="317" y="535" type="qcurve"/>
      <point x="367" y="535"/>
      <point x="450" y="505"/>
      <point x="500" y="441"/>
      <point x="500" y="391" type="qcurve"/>
      <point x="500" y="219"/>
      <point x="164" y="210" type="qcurve"/>
      <point x="162" y="196"/>
      <point x="162" y="184" type="qcurve"/>
      <point x="162" y="93"/>
      <point x="260" y="93" type="qcurve"/>
      <point x="336" y="93"/>
      <point x="394" y="167" type="qcurve"/>
      <point x="473" y="104" type="line"/>
      <point x="388" y="-12"/>
    </contour>
    <contour>
      <point x="178" y="294" type="line"/>
      <point x="285" y="298"/>
      <point x="375" y="338"/>
      <point x="375" y="380" type="qcurve"/>
      <point x="375" y="436"/>
      <point x="309" y="436" type="qcurve"/>
      <point x="205" y="436"/>
      <point x="181" y="309" type="qcurve"/>
    </contour>
    <contour>
      <point x="201" y="-196" type="qcurve"/>
      <point x="137" y="-196"/>
      <point x="137" y="-147" type="qcurve"/>
      <point x="137" y="-136"/>
      <point x="142" y="-112" type="qcurve"/>
      <point x="148" y="-56"/>
      <point x="221" y="-56" type="qcurve"/>
      <point x="285" y="-56"/>
      <point x="285" y="-105" type="qcurve"/>
      <point x="285" y="-116"/>
      <point x="280" y="-129"/>
      <point x="279" y="-140" type="qcurve"/>
      <point x="271" y="-168"/>
      <point x="235" y="-196"/>
    </contour>
  </outline>
</glyph>
<glyph name="Ecircumflextilde" format="2">
  <advance width="576"/>
  <unicode hex="1EC4"/>
  <outline>
    <contour>
      <point x="478" y="0" type="line"/>
      <point x="25" y="0" type="line"/>
      <point x="165" y="698" type="line"/>
      <point x="607" y="698" type="line"/>
      <point x="583" y="581" type="line"/>
      <point x="275" y="581" type="line"/>
      <point x="241" y="411" type="line"/>
      <point x="514" y="411" type="line"/>
      <point x="491" y="294" type="line"/>
      <point x="217" y="294" type="line"/>
      <point x="182" y="117" type="line"/>
      <point x="502" y="117" type="line"/>
    </contour>
    <contour>
      <point x="496" y="954" type="qcurve"/>
      <point x="462" y="954"/>
      <point x="439" y="970" type="qcurve"/>
      <point x="411" y="985"/>
      <point x="379" y="998"/>
      <point x="363" y="998" type="qcurve"/>
      <point x="333" y="998"/>
      <point x="305" y="972" type="qcurve"/>
      <point x="272" y="1031" type="line"/>
      <point x="325" y="1092"/>
      <point x="388" y="1092" type="qcurve"/>
      <point x="409" y="1092"/>
      <point x="437" y="1079"/>
      <point x="449" y="1073" type="qcurve"/>
      <point x="467" y="1063"/>
      <point x="503" y="1048"/>
      <point x="520" y="1048" type="qcurve"/>
      <point x="550" y="1048"/>
      <point x="578" y="1074" type="qcurve"/>
      <point x="611" y="1015" type="line"/>
      <point x="559" y="954"/>
    </contour>
    <contour>
      <point x="512" y="735" type="line"/>
      <point x="410" y="841" type="line"/>
      <point x="276" y="735" type="line"/>
      <point x="216" y="792" type="line"/>
      <point x="377" y="926" type="line"/>
      <point x="468" y="926" type="line"/>
      <point x="578" y="792" type="line"/>
    </contour>
  </outline>
</glyph>
<glyph name="Ocircumflexhookabove" format="2">
  <advance width="692"/>
  <unicode hex="1ED4"/>
  <outline>
    <contour>
      <point x="306" y="-12" type="qcurve"/>
      <point x="234" y="-12"/>
      <point x="122" y="52"/>
      <point x="57" y="177"/>
      <point x="57" y="269" type="qcurve"/>
      <point x="57" y="347"/>
      <point x="103" y="504"/>
      <point x="193" y="632"/>
      <point x="327" y="710"/>
      <point x="415" y="710" type="qcurve"/>
      <point x="534" y="710"/>
      <point x="665" y="557"/>
      <point x="665" y="429" type="qcurve"/>
      <point x="665" y="347"/>
      <point x="617" y="189"/>
      <point x="524" y="63"/>
      <point x="391" y="-12"/>
    </contour>
    <contour>
      <point x="316" y="106" type="qcurve"/>
      <point x="402" y="106"/>
      <point x="493" y="218"/>
      <point x="507" y="308" type="qcurve"/>
      <point x="514" y="338" type="line"/>
      <point x="522" y="373"/>
      <point x="529" y="416"/>
      <point x="531" y="455" type="qcurve"/>
      <point x="529" y="592"/>
      <point x="406" y="592" type="qcurve"/>
      <point x="322" y="592"/>
      <point x="229" y="481"/>
      <point x="215" y="389" type="qcurve"/>
      <point x="209" y="364" type="line"/>
      <point x="191" y="290"/>
      <point x="191" y="243" type="qcurve"/>
      <point x="191" y="106"/>
    </contour>
    <contour>
      <point x="634" y="878" type="qcurve"/>
      <point x="571" y="910" type="line"/>
      <point x="626" y="1008" type="line"/>
      <point x="516" y="1008" type="line"/>
      <point x="534" y="1100" type="line"/>
      <point x="664" y="1100" type="line"/>
      <point x="737" y="1100"/>
      <point x="737" y="1045" type="qcurve"/>
      <point x="737" y="1005"/>
      <point x="684" y="932"/>
    </contour>
    <contour>
      <point x="561" y="735" type="line"/>
      <point x="459" y="841" type="line"/>
      <point x="325" y="735" type="line"/>
      <point x="265" y="792" type="line"/>
      <point x="428" y="936" type="line"/>
      <point x="518" y="936" type="line"/>
      <point x="626" y="792" type="line"/>
    </contour>
  </outline>
</glyph>
<glyph name="Ytilde" format="2">
  <advance width="615"/>
  <unicode hex="1EF8"/>
  <outline>
    <contour>
      <point x="320" y="0" type="line"/>
      <point x="187" y="0" type="line"/>
      <point x="241" y="271" type="line"/>
      <point x="94" y="698" type="line"/>
      <point x="229" y="698" type="line"/>
      <point x="327" y="395" type="line"/>
      <point x="334" y="395" type="line"/>
      <point x="544" y="698" type="line"/>
      <point x="691" y="698" type="line"/>
      <point x="372" y="261" type="line"/>
    </contour>
    <contour>
      <point x="472" y="765" type="qcurve"/>
      <point x="452" y="765"/>
      <point x="415" y="779"/>
      <point x="379" y="797"/>
      <point x="344" y="810"/>
      <point x="325" y="810" type="qcurve"/>
      <point x="309" y="810"/>
      <point x="283" y="797"/>
      <point x="267" y="784" type="qcurve"/>
      <point x="227" y="848" type="line"/>
      <point x="273" y="908"/>
      <point x="339" y="908" type="qcurve"/>
      <point x="358" y="908"/>
      <point x="396" y="894"/>
      <point x="432" y="877"/>
      <point x="468" y="864"/>
      <point x="485" y="864" type="qcurve"/>
      <point x="503" y="864"/>
      <point x="528" y="876"/>
      <point x="544" y="889" type="qcurve"/>
      <point x="584" y="826" type="line"/>
      <point x="535" y="765"/>
    </contour>
  </outline>
</glyph>
<glyph name="emdash" format="2">
  <advance width="768"/>
  <unicode hex="2014"/>
  <outline>
    <contour>
      <point x="730" y="250" type="line"/>
      <point x="33" y="250" type="line"/>
      <point x="54" y="357" type="line"/>
      <point x="751" y="357" type="line"/>
    </contour>
  </outline>
</glyph>
<glyph name="dagger" format="2">
  <advance width="514"/>
  <unicode hex="2020"/>
  <outline>
    <contour>
      <point x="220" y="-200" type="line"/>
      <point x="108" y="-200" type="line"/>
      <point x="231" y="418" type="line"/>
      <point x="56" y="418" type="line"/>
      <point x="76" y="515" type="line"/>
      <point x="251" y="515" type="line"/>
      <point x="296" y="740" type="line"/>
      <point x="408" y="740" type="line"/>
      <point x="363" y="515" type="line"/>
      <point x="535" y="515" type="line"/>
      <point x="515" y="418" type="line"/>
      <point x="343" y="418" type="line"/>
    </contour>
  </outline>
</glyph>
